<svg width="32" height="32" viewBox="0 0 32 32" fill="none" xmlns="http://www.w3.org/2000/svg">
<path d="M19.1677 7.39639C20.2441 6.52692 20.4878 5.59745 20.5026 4.97078C20.5388 3.44626 19.335 2.33063 19.1975 2.20851C18.8572 1.90576 18.3358 1.93628 18.033 2.27671C17.7302 2.61714 17.7607 3.13848 18.1012 3.44128C18.1089 3.44817 18.8716 4.16173 18.8533 4.93168C18.8436 5.34189 18.6073 5.72831 18.131 6.11304C17.0547 6.98252 16.811 7.91199 16.7962 8.53865C16.7599 10.0632 17.9638 11.1788 18.1012 11.301C18.2526 11.4359 18.4484 11.5103 18.6512 11.5101C18.8785 11.5101 19.1047 11.4171 19.2674 11.2342C19.5701 10.8938 19.5413 10.3739 19.2008 10.0711C18.9843 9.87423 18.4266 9.2211 18.4456 8.57157C18.4576 8.16366 18.6938 7.77921 19.1677 7.39639ZM13.9339 7.39639C15.0102 6.52692 15.2539 5.59745 15.2687 4.97078C15.3049 3.44626 14.1011 2.33063 13.9637 2.20851C13.6234 1.90576 13.1019 1.93628 12.7991 2.27671C12.4964 2.61714 12.5269 3.13848 12.8673 3.44128C12.875 3.44817 13.6377 4.16173 13.6194 4.93168C13.6097 5.34189 13.3734 5.72831 12.8972 6.11304C11.8208 6.98252 11.5771 7.91199 11.5623 8.53865C11.5261 10.0632 12.7299 11.1788 12.8673 11.301C13.0187 11.4359 13.2145 11.5103 13.4173 11.5101C13.6446 11.5101 13.8709 11.4171 14.0335 11.2342C14.3363 10.8938 14.3074 10.3739 13.967 10.0711C13.7504 9.87423 13.1927 9.2211 13.2117 8.57157C13.2237 8.16366 13.4599 7.77921 13.9339 7.39639ZM25.7431 15.4612H24.7668V14.8563C24.7668 14.4007 24.3975 14.0314 23.9419 14.0314H2.88863C2.43308 14.0314 2.06372 14.4007 2.06372 14.8563V19.2098C2.06372 23.0567 4.19298 26.4393 7.38969 28.3502H2.88912C2.43357 28.3502 2.06421 28.7195 2.06421 29.1751C2.06421 29.6307 2.43346 30 2.88912 30H23.942C24.3975 30 24.7669 29.6307 24.7669 29.1751C24.7669 28.7195 24.3976 28.3502 23.942 28.3502H19.4409C21.2587 27.2636 22.7313 25.7012 23.6634 23.8478H25.7432C28.0553 23.8478 29.9365 21.9667 29.9365 19.6545C29.9365 17.3423 28.0553 15.4612 25.7431 15.4612ZM23.1171 19.2098C23.117 24.2498 18.7648 28.3502 13.4153 28.3502C8.06573 28.3502 3.71353 24.2498 3.71353 19.2098V15.6812H23.117V19.2098H23.1171ZM25.7431 22.1981H24.3236C24.6179 21.2293 24.7673 20.2223 24.7668 19.2098V17.1109H25.7431C27.1456 17.1109 28.2867 18.252 28.2867 19.6545C28.2867 21.057 27.1456 22.1981 25.7431 22.1981ZM8.7 7.39645C9.77636 6.52697 10.02 5.5975 10.0349 4.97084C10.0711 3.44631 8.86723 2.33069 8.7298 2.20857C8.38943 1.90582 7.86804 1.93633 7.56523 2.27676C7.26248 2.61714 7.293 3.13853 7.63343 3.44134C7.64114 3.44823 8.40381 4.16179 8.38555 4.93173C8.37581 5.34195 8.13956 5.72837 7.66329 6.11309C6.58693 6.98257 6.34324 7.91204 6.32842 8.53871C6.29227 10.0632 7.49611 11.1788 7.63348 11.301C7.78427 11.4355 7.97933 11.5097 8.1814 11.5095C8.29792 11.5097 8.41316 11.4851 8.51947 11.4374C8.62579 11.3897 8.72076 11.3199 8.79811 11.2328C9.10086 10.8923 9.07034 10.371 8.72991 10.0682C8.7222 10.0613 7.95953 9.34775 7.9778 8.57781C7.98742 8.1676 8.22367 7.78112 8.7 7.39645Z" fill="#B5C3DC"/>
<path d="M20 24C12 31 6 23.5 5 20C5.4 18.8 9.16667 18.8333 11 19C18.5 20 20.8333 18.6667 22 18C22 20.5 22 21.5 20 24Z" fill="#CED8ED"/>
</svg>
