<svg width="32" height="32" viewBox="0 0 32 32" fill="none" xmlns="http://www.w3.org/2000/svg">
<path d="M27 4.42C27 2.51 20.0854 2 16 2C11.9146 2 5 2.51 5 4.42C5 4.434 5.00412 4.447 5.00471 4.46C5.00471 4.4635 5.00295 4.4665 5.00354 4.4695L7.75427 28.0925C7.84395 28.6397 8.17139 29.1387 8.67235 29.4916C9.1733 29.8445 9.8116 30.0258 10.462 30H21.538C22.188 30.0258 22.826 29.8446 23.3268 29.492C23.8275 29.1394 24.1551 28.6408 24.2451 28.094L26.9971 4.4695L26.9953 4.4605C26.9959 4.447 27 4.4335 27 4.42ZM16 3C21.98 3 25.5292 3.915 25.8156 4.42C25.5292 4.926 21.98 5.8405 16 5.8405C9.9947 5.8405 6.4449 4.919 6.18503 4.4485L6.18326 4.429C6.43135 3.9255 9.9835 3 16 3ZM23.0719 27.9975C23.0042 28.2945 22.8109 28.5603 22.5284 28.7449C22.246 28.9296 21.8938 29.0203 21.538 29H10.462C10.1059 29.0203 9.75332 28.9295 9.47069 28.7445C9.18806 28.5596 8.99487 28.2934 8.92752 27.996L6.32882 5.6805C8.53801 6.5685 13.02 6.8405 16 6.8405C18.98 6.8405 23.462 6.5685 25.6712 5.6805L23.0719 27.9975Z" fill="#1855D8"/>
<path d="M23.4426 13.2951C23.3875 13.2433 23.3202 13.2019 23.2451 13.1735C23.17 13.1451 23.0887 13.1303 23.0065 13.1301H18.7932C17.7526 13.1288 16.7549 12.7783 16.0177 12.1551C15.5433 11.753 14.98 11.4343 14.3601 11.2172C13.7403 11.0001 13.076 10.889 12.4055 10.8901H9.85978C9.65514 10.8896 9.45267 10.9258 9.26573 10.9964C9.07878 11.0671 8.91159 11.1705 8.77519 11.2999C8.63878 11.4294 8.53625 11.5819 8.47435 11.7474C8.41245 11.9129 8.39258 12.0877 8.41606 12.2601L10.2487 25.8901C10.2826 26.1494 10.4284 26.3889 10.6579 26.5625C10.8875 26.736 11.1846 26.8314 11.4921 26.8301H11.5215L20.8851 26.6301C21.1876 26.6234 21.4767 26.5232 21.6981 26.3482C21.9195 26.1732 22.0579 25.9356 22.0872 25.6801L23.5899 13.6801C23.5987 13.6108 23.5901 13.5406 23.5647 13.4743C23.5393 13.4079 23.4977 13.3469 23.4426 13.2951Z" fill="#1855D8"/>
</svg>
