<svg width="32" height="32" viewBox="0 0 32 32" fill="none" xmlns="http://www.w3.org/2000/svg">
<path d="M24.7715 10.2212C27.3539 10.2212 29.4609 12.3283 29.4609 14.9106C29.4607 17.4929 27.3537 19.5991 24.7715 19.5991C24.573 19.5991 24.3777 19.5842 24.1855 19.5601V18.3774C24.3761 18.4091 24.5717 18.4272 24.7715 18.4272C26.7207 18.4272 28.2879 16.8599 28.2881 14.9106C28.2881 12.9613 26.7209 11.394 24.7715 11.394C24.5717 11.3941 24.376 11.4102 24.1855 11.4419V10.2593C24.3776 10.2351 24.5731 10.2212 24.7715 10.2212Z" fill="#B5C3DC"/>
<path d="M24.7715 10.2212V9.97119H24.7715L24.7715 10.2212ZM29.4609 14.9106L29.7109 14.9107V14.9106H29.4609ZM24.7715 19.5991L24.7715 19.8491H24.7715V19.5991ZM24.1855 19.5601H23.9355V19.7806L24.1544 19.8081L24.1855 19.5601ZM24.1855 18.3774L24.2265 18.1308L23.9355 18.0825V18.3774H24.1855ZM24.7715 18.4272L24.7715 18.6772H24.7715V18.4272ZM28.2881 14.9106L28.5381 14.9107V14.9106H28.2881ZM24.7715 11.394V11.144H24.7715L24.7715 11.394ZM24.1855 11.4419H23.9355V11.7369L24.2265 11.6885L24.1855 11.4419ZM24.1855 10.2593L24.1544 10.0112L23.9355 10.0387V10.2593H24.1855ZM24.7715 10.2212V10.4712C27.2158 10.4712 29.2109 12.4663 29.2109 14.9106H29.4609H29.7109C29.7109 12.1902 27.4919 9.97119 24.7715 9.97119V10.2212ZM29.4609 14.9106L29.2109 14.9106C29.2107 17.3547 27.2157 19.3491 24.7715 19.3491V19.5991V19.8491C27.4918 19.8491 29.7107 17.631 29.7109 14.9107L29.4609 14.9106ZM24.7715 19.5991L24.7715 19.3491C24.5855 19.3491 24.4007 19.3351 24.2167 19.312L24.1855 19.5601L24.1544 19.8081C24.3546 19.8333 24.5605 19.8491 24.7715 19.8491L24.7715 19.5991ZM24.1855 19.5601H24.4355V18.3774H24.1855H23.9355V19.5601H24.1855ZM24.1855 18.3774L24.1446 18.6241C24.3472 18.6577 24.5565 18.6772 24.7715 18.6772L24.7715 18.4272L24.7715 18.1772C24.5868 18.1772 24.405 18.1605 24.2265 18.1308L24.1855 18.3774ZM24.7715 18.4272V18.6772C26.8588 18.6772 28.5379 16.9979 28.5381 14.9107L28.2881 14.9106L28.0381 14.9106C28.0379 16.7218 26.5826 18.1772 24.7715 18.1772V18.4272ZM28.2881 14.9106H28.5381C28.5381 12.8232 26.8589 11.144 24.7715 11.144V11.394V11.644C26.5828 11.644 28.0381 13.0993 28.0381 14.9106H28.2881ZM24.7715 11.394L24.7715 11.144C24.5582 11.1441 24.3488 11.1613 24.1446 11.1953L24.1855 11.4419L24.2265 11.6885C24.4032 11.6591 24.5853 11.6441 24.7715 11.644L24.7715 11.394ZM24.1855 11.4419H24.4355V10.2593H24.1855H23.9355V11.4419H24.1855ZM24.1855 10.2593L24.2167 10.5073C24.3998 10.4843 24.5848 10.4712 24.7715 10.4712L24.7715 10.2212L24.7715 9.97119C24.5614 9.9712 24.3554 9.98596 24.1544 10.0112L24.1855 10.2593Z" fill="#B5C3DC"/>
<path d="M4.25036 4.43799C4.01891 4.43799 3.79694 4.52993 3.63329 4.69359C3.46963 4.85725 3.37769 5.07921 3.37769 5.31066V24.5095C3.37769 26.4267 4.95112 28.0002 6.86838 28.0002H20.8312C22.7484 28.0002 24.3218 26.4267 24.3218 24.5095V5.31066C24.3218 5.07921 24.2299 4.85725 24.0663 4.69359C23.9026 4.52993 23.6806 4.43799 23.4492 4.43799H4.25036ZM5.12303 6.18333H22.5765V24.5095C22.5765 25.4834 21.8051 26.2548 20.8312 26.2548H6.86838C5.89448 26.2548 5.12303 25.4834 5.12303 24.5095V6.18333Z" fill="#B5C3DC"/>
<path d="M7 21.7712V12.1928C7 9.63856 10 9.70951 11.5 10.0643C17.5 10.9157 20.3333 9.70951 21 9V21.7712C21 24.7512 19 25.1414 18 24.964H10C7.6 24.964 7 22.8355 7 21.7712Z" fill="#CED8ED"/>
</svg>
