<svg width="20" height="20" viewBox="0 0 20 20" fill="none" xmlns="http://www.w3.org/2000/svg">
<path d="M10.7027 2.55132C10.2432 1.80339 9.75676 1.82918 9.2973 2.55132C7.18919 5.54306 4 10.0307 4 12.2745C4 13.8477 4.67568 15.292 5.75676 16.3236C6.83784 17.3553 8.35135 18 10 18C11.6486 18 13.1622 17.3553 14.2432 16.3236C15.3243 15.292 16 13.8477 16 12.2745C16 10.0049 12.8108 5.54306 10.7027 2.55132ZM14.3243 14.8278C13.8919 15.4983 13.2703 16.0915 12.5135 16.5042C12.1622 16.6847 11.7297 16.5815 11.5405 16.2463C11.3243 15.8852 11.4595 15.4725 11.8108 15.292C12.3514 15.0083 12.7838 14.5956 13.1081 14.1056C13.4324 13.6156 13.6216 13.0482 13.6486 12.455C13.6757 12.0681 14 11.7844 14.4054 11.8102C14.8108 11.836 15.1081 12.1455 15.0811 12.5324C15.027 13.3577 14.7568 14.1314 14.3243 14.8278Z" fill="#1855D8"/>
</svg>
