<svg width="28" height="28" viewBox="0 0 28 28" fill="none" xmlns="http://www.w3.org/2000/svg">
<path fill-rule="evenodd" clip-rule="evenodd" d="M15.5808 19.8475V21.7894H16.8711C17.744 21.7894 18.4519 22.4973 18.4519 23.3702C18.4519 24.2431 17.744 24.9511 16.8711 24.9511H15.5808V26.4191C15.5808 27.2921 14.8729 28 14 28C13.127 28 12.4192 27.2921 12.4192 26.4191V24.9511H11.1284C10.2557 24.9511 9.54758 24.243 9.54758 23.3702C9.54758 22.4975 10.2557 21.7894 11.1284 21.7894H12.4192V19.8475C7.62313 19.0829 4.01343 14.9151 4.01343 9.98654C4.01343 4.47956 8.49294 0 14 0C19.5069 0 23.9867 4.47951 23.9867 9.98654C23.9867 14.9152 20.377 19.0829 15.5808 19.8475ZM7.1748 9.98654C7.1748 13.7493 10.2372 16.8114 13.9999 16.8114C17.7627 16.8114 20.825 13.7494 20.825 9.98654C20.825 6.22366 17.7627 3.16165 13.9999 3.16165C10.2373 3.16165 7.1748 6.22377 7.1748 9.98654Z" fill="#8D9BB5"/>
</svg>
