<svg width="16" height="16" viewBox="0 0 16 16" fill="none" xmlns="http://www.w3.org/2000/svg">
<path d="M7.99999 15C11.866 15 15 11.866 15 7.99999C15 4.134 11.866 1 7.99999 1C4.134 1 1 4.134 1 7.99999C1 11.866 4.134 15 7.99999 15Z" fill="white"/>
<path d="M7.99999 2.58594C9.07074 2.58601 10.1174 2.90358 11.0077 3.49849C11.8979 4.0934 12.5918 4.93893 13.0016 5.92818C13.4113 6.91742 13.5185 8.00594 13.3097 9.05612C13.1008 10.1063 12.5852 11.0709 11.8281 11.8281C11.3273 12.3392 10.7301 12.7459 10.071 13.0248C9.41201 13.3036 8.70425 13.449 7.98867 13.4527C7.27309 13.4563 6.5639 13.318 5.90209 13.0458C5.24029 12.7736 4.639 12.373 4.13301 11.867C3.62701 11.361 3.22634 10.7597 2.95417 10.0979C2.682 9.43609 2.54372 8.7269 2.54734 8.01132C2.55095 7.29574 2.69638 6.58798 2.97523 5.92896C3.25407 5.26994 3.66079 4.67273 4.17187 4.17187C4.67341 3.66755 5.26999 3.2677 5.92709 2.99548C6.58418 2.72325 7.28874 2.58405 7.99999 2.58594ZM7.99999 1C4.13414 1 1 4.13414 1 7.99999C1 11.8658 4.13414 15 7.99999 15C11.8658 15 15 11.8658 15 7.99999C15 4.13414 11.8658 1 7.99999 1Z" fill="#DD4247"/>
<path d="M7.99997 5.78686C8.43747 5.78703 8.8651 5.9169 9.2288 6.16006C9.5925 6.40322 9.87594 6.74876 10.0433 7.15298C10.2106 7.55721 10.2544 8.00198 10.169 8.43106C10.0836 8.86014 9.8729 9.25428 9.56354 9.56363C9.25419 9.87299 8.86005 10.0837 8.43097 10.1691C8.00189 10.2545 7.55712 10.2107 7.15289 10.0434C6.74866 9.87603 6.40313 9.59259 6.15997 9.22889C5.91681 8.86519 5.78693 8.43756 5.78677 8.00007C5.78721 7.41322 6.02052 6.85054 6.43548 6.43558C6.85045 6.02061 7.41313 5.7873 7.99997 5.78686ZM7.99997 4.20093C7.24873 4.20071 6.51429 4.42327 5.88953 4.84047C5.26477 5.25767 4.77776 5.85076 4.49009 6.54474C4.20241 7.23873 4.12698 8.00244 4.27335 8.73929C4.41972 9.47614 4.78131 10.153 5.31239 10.6844C5.84347 11.2157 6.52018 11.5777 7.25696 11.7244C7.99374 11.8711 8.75748 11.7961 9.45161 11.5088C10.1457 11.2214 10.7391 10.7347 11.1566 10.1102C11.5741 9.48564 11.797 8.75131 11.7972 8.00007C11.7974 6.99274 11.3975 6.02657 10.6854 5.31411C9.97326 4.60164 9.0073 4.20122 7.99997 4.20093Z" fill="#DD4247"/>
<path d="M8.00004 4.20093C7.2264 4.20083 6.47118 4.437 5.83542 4.87783C5.19965 5.31866 4.71368 5.94313 4.4425 6.66769C4.17133 7.39225 4.12789 8.18235 4.31799 8.93227C4.5081 9.68219 4.92269 10.3562 5.5063 10.864C6.13844 10.6893 6.74511 10.433 7.31098 10.1014C6.9527 9.98425 6.63031 9.77746 6.3744 9.50068C6.11849 9.2239 5.93756 8.88632 5.84877 8.51997C5.75998 8.15362 5.76628 7.77065 5.86708 7.40742C5.96787 7.04419 6.15982 6.71275 6.42469 6.44454C6.68957 6.17633 7.01859 5.98025 7.38053 5.87492C7.74247 5.7696 8.12533 5.75851 8.49276 5.84271C8.86019 5.92691 9.20001 6.10361 9.47997 6.35603C9.75993 6.60846 9.97073 6.92824 10.0924 7.28503C10.4166 6.71455 10.6653 6.10431 10.832 5.46968C10.4763 5.07031 10.04 4.75078 9.55187 4.53211C9.06377 4.31343 8.5349 4.20057 8.00004 4.20093Z" fill="#E55353"/>
<path d="M3.5859 11.1369C2.84862 10.0985 2.50081 8.8336 2.6036 7.56428C2.70639 6.29497 3.25319 5.10247 4.14794 4.1963C5.04268 3.29013 6.22815 2.72824 7.49606 2.60936C8.76396 2.49047 10.0332 2.8222 11.0808 3.54625V3.53313C11.0812 2.87971 10.9975 2.22895 10.8317 1.59692C9.93989 1.20228 8.97524 0.998936 8 1C4.13414 1 1.00001 4.13414 1.00001 8C0.998654 9.00548 1.21478 9.99935 1.63356 10.9135C2.23625 11.0632 2.85498 11.1387 3.47598 11.1382C3.51262 11.1382 3.54926 11.1374 3.5859 11.1369Z" fill="#E55353"/>
<path d="M14.6993 2.60254C14.4499 2.54621 14.1833 2.49317 13.9063 2.44203C13.8195 2.42552 13.7398 2.38328 13.6773 2.32081C13.6149 2.25834 13.5727 2.17853 13.5563 2.09176C13.5049 1.81449 13.4521 1.54762 13.3955 1.29879C13.3285 0.990081 12.8423 0.906136 12.5752 1.11614C12.0034 1.58098 11.278 2.27934 10.7847 2.8232C10.6898 2.92793 10.6507 3.08543 10.677 3.24184C10.7429 3.63395 10.8009 4.02742 10.8566 4.4075L7.63199 7.6316C7.53766 7.72963 7.48555 7.86074 7.48684 7.99678C7.48813 8.13281 7.54274 8.26292 7.63892 8.35913C7.73509 8.45535 7.86517 8.50999 8.00121 8.51134C8.13725 8.51269 8.26838 8.46062 8.36644 8.36632L11.5911 5.14168C11.9709 5.19637 12.3646 5.25543 12.7568 5.3216C12.9132 5.34758 13.0707 5.30875 13.1754 5.21223C13.7193 4.72004 14.4171 3.99352 14.8825 3.42176C15.0922 3.1557 15.0085 2.66981 14.6993 2.60254Z" fill="#34344F"/>
</svg>
