<svg width="16" height="16" viewBox="0 0 16 16" fill="none" xmlns="http://www.w3.org/2000/svg">
<path d="M10.8984 1H5.10156C2.83641 1 1 2.83641 1 5.10156V10.8984C1 13.1636 2.83641 15 5.10156 15H10.8984C13.1636 15 15 13.1636 15 10.8984V5.10156C15 2.83641 13.1636 1 10.8984 1ZM10.2567 10.9107L8.48344 12.684C8.21656 12.9509 7.78371 12.9509 7.51656 12.684L5.74332 10.9107C5.47645 10.6439 5.47645 10.211 5.74332 9.94387C6.0102 9.67699 6.44305 9.67699 6.7102 9.94387L7.31668 10.5504V5.44965L6.7102 6.05613C6.44332 6.32301 6.01047 6.32301 5.74332 6.05613C5.47645 5.78926 5.47645 5.35641 5.74332 5.08926L7.51656 3.31602C7.78344 3.04914 8.21629 3.04914 8.48344 3.31602L10.2567 5.08926C10.5236 5.35613 10.5236 5.78898 10.2567 6.05613C9.9898 6.32301 9.55695 6.32301 9.28981 6.05613L8.68332 5.44965V10.5501L9.28981 9.94359C9.55668 9.67672 9.98953 9.67672 10.2567 9.94359C10.5236 10.2105 10.5236 10.6433 10.2567 10.9105V10.9107Z" fill="#FFA007"/>
</svg>
