<svg width="24" height="24" viewBox="0 0 24 24" fill="none" xmlns="http://www.w3.org/2000/svg">
<path d="M11.8757 11.6058C13.3016 11.6058 14.5364 11.0944 15.5452 10.0853C16.5541 9.07651 17.0655 7.8421 17.0655 6.41605C17.0655 4.99042 16.5541 3.75589 15.5451 2.74667C14.536 1.73797 13.3015 1.22656 11.8757 1.22656C10.4496 1.22656 9.2152 1.73797 8.20637 2.74684C7.19753 3.75572 6.68592 4.99029 6.68592 6.41605C6.68592 7.8421 7.19749 9.07667 8.20654 10.0855C9.21558 11.0943 10.4502 11.6058 11.8757 11.6058ZM20.9565 17.7951C20.9273 17.3753 20.8685 16.9172 20.7819 16.4336C20.6944 15.9464 20.5818 15.4858 20.447 15.0647C20.3078 14.6296 20.1184 14.1999 19.8843 13.7881C19.6414 13.3607 19.356 12.9885 19.0357 12.6823C18.7009 12.3619 18.2909 12.1043 17.8168 11.9163C17.3443 11.7295 16.8207 11.6348 16.2607 11.6348C16.0407 11.6348 15.828 11.725 15.4172 11.9925C15.1252 12.1827 14.8323 12.3715 14.5385 12.5589C14.2563 12.7388 13.8739 12.9073 13.4016 13.0599C12.9408 13.209 12.473 13.2846 12.0112 13.2846C11.5494 13.2846 11.0817 13.209 10.6204 13.0599C10.1487 12.9074 9.76629 12.739 9.48433 12.5591C9.15734 12.3502 8.86149 12.1595 8.60486 11.9923C8.19454 11.7248 7.98164 11.6346 7.76171 11.6346C7.20145 11.6346 6.67805 11.7294 6.20574 11.9165C5.73196 12.1041 5.32181 12.3617 4.98662 12.6824C4.66657 12.9888 4.38103 13.3608 4.13837 13.7881C3.90447 14.1999 3.71509 14.6294 3.57567 15.0649C3.441 15.4859 3.32843 15.9464 3.24098 16.4336C3.15433 16.9166 3.09549 17.3748 3.06637 17.7956C3.0374 18.2191 3.02304 18.6435 3.02332 19.068C3.02332 20.1927 3.38086 21.1033 4.08594 21.7748C4.7823 22.4375 5.70368 22.7737 6.82416 22.7737H17.1992C18.3197 22.7737 19.2407 22.4377 19.9372 21.7748C20.6425 21.1038 21 20.1931 21 19.0678C20.9999 18.6337 20.9853 18.2054 20.9565 17.7951Z" fill="#8D9BB5"/>
</svg>
