<svg width="24" height="24" viewBox="0 0 24 24" fill="none" xmlns="http://www.w3.org/2000/svg">
<path d="M19.8282 2.20625C19.7658 2.1413 19.6895 2.08938 19.6043 2.05385C19.5191 2.01832 19.4268 1.99998 19.3336 2H4.66717C4.47918 2 4.29918 2.075 4.17251 2.20625C4.1101 2.27099 4.0628 2.34724 4.03364 2.43011C4.00449 2.51298 3.99411 2.60065 4.00318 2.6875L6.00315 21.4375C6.01973 21.5918 6.09686 21.7347 6.21956 21.8387C6.34225 21.9426 6.50177 22.0001 6.66714 22H17.3336C17.6763 22 17.9629 21.7575 17.9963 21.4375L19.9962 2.6875C20.0062 2.6007 19.9963 2.51292 19.9674 2.42996C19.9384 2.34699 19.891 2.27074 19.8282 2.20625ZM18.0536 8.3475C16.359 8.86125 14.1537 9.09875 12.423 7.7675C10.2537 6.09875 7.59512 6.38625 5.79249 6.88875L5.40449 3.25H18.5963L18.0536 8.3475Z" fill="#8D9BB5"/>
</svg>
