<svg width="162" height="162" viewBox="0 0 162 162" fill="none" xmlns="http://www.w3.org/2000/svg">
<path d="M108.517 61.2625C106.945 59.0098 103.804 56.9049 100.943 55.6189C98.0808 54.3328 95.0018 53.712 91.9048 53.7967C85.9257 53.7967 82.3875 56.8155 79.2671 59.4789C76.2855 62.0244 73.4679 64.4282 68.5799 64.4282C63.5978 64.3924 58.6795 63.2097 54.1511 60.9584L48.8848 58.2188L56.3203 122.766C57.2695 127.828 58.377 127.828 64.5469 127.828C65.4333 127.828 71.9067 127.828 72.2988 127.828H97.5152C97.9071 127.828 101.408 126.246 101.883 125.771C102.516 125.613 103.269 124.296 103.307 123.873L109.951 62.9648L108.517 61.2625Z" fill="white"/>
<path d="M117.195 38.918L108.749 126.514C108.28 129.779 106.71 131.26 105.075 131.966C103.291 132.736 101.197 132.67 99.832 132.342L99.6123 132.289H58.7266C56.2655 132.289 54.6598 131.313 53.5938 130.128C52.4861 128.897 51.9386 127.403 51.7812 126.468L41.9902 38.918H117.195Z" stroke="white" stroke-width="3.79688"/>
<path d="M79.5762 29.4258C90.4416 29.4258 100.219 30.4449 107.228 32.0645C110.747 32.8777 113.464 33.8195 115.255 34.7979C116.151 35.2874 116.727 35.7385 117.058 36.1123C117.378 36.4742 117.387 36.6637 117.387 36.7031C117.387 36.7425 117.378 36.932 117.058 37.2939C116.727 37.6677 116.151 38.1188 115.255 38.6084C113.464 39.5867 110.747 40.5285 107.228 41.3418C100.219 42.9613 90.4416 43.9805 79.5762 43.9805C68.7107 43.9805 58.9334 42.9613 51.9248 41.3418C48.4054 40.5285 45.6882 39.5867 43.8975 38.6084C43.0014 38.1188 42.4257 37.6677 42.0947 37.2939C41.7743 36.932 41.7656 36.7425 41.7656 36.7031C41.7656 36.6637 41.7743 36.4742 42.0947 36.1123C42.4257 35.7385 43.0014 35.2874 43.8975 34.7979C45.6882 33.8195 48.4054 32.8777 51.9248 32.0645C58.9334 30.4449 68.7107 29.4258 79.5762 29.4258Z" fill="#1A57DB" stroke="white" stroke-width="3.79688"/>
<g filter="url(#filter0_d_127_4585)">
<path d="M103.9 98.877L91.6392 108.171L88.6729 112.324L90.6504 126.562L99.3516 136.45L115.37 138.428L126.642 128.145L128.619 113.313L119.918 101.052L103.9 98.877Z" fill="#12CF1F"/>
<path d="M108.844 96.8994C104.541 96.8994 100.336 98.1752 96.7585 100.565C93.1812 102.956 90.3931 106.353 88.7467 110.328C87.1002 114.303 86.6695 118.676 87.5088 122.896C88.3481 127.116 90.4199 130.992 93.4621 134.034C96.5043 137.076 100.38 139.148 104.6 139.987C108.82 140.827 113.193 140.396 117.168 138.749C121.143 137.103 124.54 134.315 126.931 130.738C129.321 127.16 130.597 122.955 130.597 118.652C130.59 112.885 128.296 107.356 124.218 103.278C120.14 99.2002 114.611 96.9062 108.844 96.8994ZM108.844 136.45C105.324 136.45 101.883 135.406 98.9558 133.451C96.029 131.495 93.7478 128.715 92.4007 125.463C91.0536 122.211 90.7012 118.633 91.3879 115.18C92.0746 111.728 93.7697 108.556 96.2588 106.067C98.7479 103.578 101.919 101.883 105.372 101.196C108.824 100.51 112.403 100.862 115.655 102.209C118.907 103.556 121.686 105.838 123.642 108.764C125.598 111.691 126.642 115.132 126.642 118.652C126.636 123.371 124.759 127.894 121.422 131.231C118.086 134.567 113.562 136.444 108.844 136.45Z" fill="white"/>
<path d="M110.821 117.834V106.787C110.821 106.263 110.613 105.76 110.242 105.389C109.871 105.018 109.368 104.81 108.844 104.81C108.319 104.81 107.816 105.018 107.445 105.389C107.075 105.76 106.866 106.263 106.866 106.787V118.652C106.866 119.177 107.075 119.68 107.446 120.05L113.378 125.983C113.751 126.343 114.251 126.543 114.769 126.538C115.288 126.534 115.784 126.326 116.15 125.959C116.517 125.592 116.725 125.096 116.73 124.578C116.734 124.059 116.535 123.56 116.174 123.187L110.821 117.834Z" fill="white"/>
</g>
<defs>
<filter id="filter0_d_127_4585" x="82.0621" y="93.7127" width="52.2977" height="52.2977" filterUnits="userSpaceOnUse" color-interpolation-filters="sRGB">
<feFlood flood-opacity="0" result="BackgroundImageFix"/>
<feColorMatrix in="SourceAlpha" type="matrix" values="0 0 0 0 0 0 0 0 0 0 0 0 0 0 0 0 0 0 127 0" result="hardAlpha"/>
<feOffset dx="-0.632812" dy="1.2092"/>
<feGaussianBlur stdDeviation="1.2092"/>
<feComposite in2="hardAlpha" operator="out"/>
<feColorMatrix type="matrix" values="0 0 0 0 0 0 0 0 0 0 0 0 0 0 0 0 0 0 0.25 0"/>
<feBlend mode="normal" in2="BackgroundImageFix" result="effect1_dropShadow_127_4585"/>
<feBlend mode="normal" in="SourceGraphic" in2="effect1_dropShadow_127_4585" result="shape"/>
</filter>
</defs>
</svg>
