<svg width="28" height="28" viewBox="0 0 28 28" fill="none" xmlns="http://www.w3.org/2000/svg">
<path d="M25.6481 0.951904H17.9201C17.1361 0.951904 16.5201 1.5679 16.5201 2.3519C16.5201 3.1359 17.1361 3.7519 17.9201 3.7519H22.2321L17.0801 8.9039C13.1041 5.9359 7.44807 6.2159 3.86407 9.7999C-0.0559278 13.7199 -0.0559278 20.1599 3.86407 24.0799C7.78407 27.9999 14.2241 27.9999 18.1441 24.0799C21.7281 20.4959 22.0641 14.7839 19.0401 10.8639L24.1921 5.7119V10.0799C24.1921 10.8639 24.8081 11.4799 25.5921 11.4799C26.3761 11.4799 26.9921 10.8639 26.9921 10.0799V2.3519C27.0481 1.5679 26.4321 0.951904 25.6481 0.951904ZM16.2401 22.1199C13.3841 24.9759 8.73607 24.9759 5.88007 22.1199C3.02407 19.2639 3.02407 14.6159 5.88007 11.7599C8.73607 8.9039 13.3841 8.9039 16.2401 11.7599C19.0961 14.6159 19.0961 19.2639 16.2401 22.1199Z" fill="white"/>
</svg>
