<svg width="58" height="58" viewBox="0 0 58 58" fill="none" xmlns="http://www.w3.org/2000/svg">
<path d="M47.8822 24.529C46.7745 25.6568 45.2037 26.3013 43.6127 26.3013H40.1891L40.1287 26.3617C40.4711 27.5297 40.6725 28.7783 40.6725 30.0672C40.6725 37.0353 34.9933 42.7144 28.0051 42.7144C24.6525 42.7091 21.4387 41.3749 19.068 39.0043C16.6974 36.6336 15.3632 33.4198 15.3579 30.0672C15.3579 23.079 21.037 17.3999 28.0051 17.3999C29.2134 17.3999 30.4016 17.561 31.5093 17.9033L31.61 17.8026V14.3186C31.61 12.6874 32.2343 11.1769 33.3822 10.0492L35.2954 8.13597C32.9531 7.34559 30.4972 6.94421 28.0252 6.94778C15.2773 6.94778 4.90579 17.3193 4.90579 30.0471C4.90579 42.795 15.2773 53.1665 28.0252 53.1665C40.7732 53.1665 51.1245 42.795 51.1245 30.0471C51.1245 27.4693 50.7016 24.9519 49.8558 22.5554L47.8822 24.529Z" fill="#AFBAD2"/>
<path d="M52.9773 12.1236C52.8403 11.7612 52.6026 11.4454 52.2922 11.2135C51.9818 10.9816 51.6116 10.8432 51.2253 10.8145L47.3989 10.5326L47.1169 6.70621C47.0883 6.31982 46.9498 5.94965 46.7179 5.63926C46.486 5.32887 46.1703 5.09117 45.8079 4.95413C45.0829 4.69233 44.2371 4.87358 43.6933 5.41733L36.2218 12.8889C36.0342 13.0764 35.886 13.2994 35.7857 13.5449C35.6854 13.7905 35.6351 14.0535 35.6378 14.3187V19.4541L30.6977 24.4566C29.8596 24.0444 28.939 23.8275 28.0051 23.8223C24.5815 23.8223 21.7822 26.6216 21.7822 30.0452C21.7822 31.6975 22.4372 33.2824 23.6036 34.4526C24.7701 35.6228 26.3528 36.2829 28.0051 36.2882C31.4489 36.2882 34.2482 33.4889 34.2482 30.0452C34.2411 29.0842 34.0079 28.1383 33.5675 27.2841L38.4975 22.2716H43.6128C44.1364 22.2716 44.66 22.0702 45.0426 21.6875L52.494 14.2361C52.768 13.9665 52.959 13.6242 53.0447 13.2495C53.1303 12.8748 53.107 12.4854 52.9773 12.1236Z" fill="#AFBAD2"/>
</svg>
