<svg width="16" height="16" viewBox="0 0 16 16" fill="none" xmlns="http://www.w3.org/2000/svg">
<path d="M13.823 7.34769C13.501 7.34769 13.2397 7.08645 13.2397 6.76439C13.2397 5.12814 12.6027 3.59049 11.4459 2.43309C11.2178 2.20504 11.2178 1.83645 11.4459 1.60829C11.6739 1.38024 12.0427 1.38024 12.2707 1.60829C13.6481 2.98551 14.4063 4.8167 14.4063 6.76439C14.4063 7.08645 14.145 7.34769 13.823 7.34769ZM2.15629 7.34769C1.83438 7.34769 1.573 7.08645 1.573 6.76439C1.573 4.8167 2.33135 2.98551 3.7086 1.60829C3.93665 1.38024 4.30535 1.38024 4.5334 1.60829C4.76153 1.83645 4.76153 2.20504 4.5334 2.43309C3.37659 3.58989 2.7397 5.12817 2.7397 6.76439C2.7397 7.08645 2.47832 7.34769 2.15629 7.34769Z" fill="#FFCC00"/>
<path d="M10.323 12.6667C10.323 13.9554 9.27834 15 7.98966 15C6.70097 15 5.65625 13.9554 5.65625 12.6667C5.65625 11.378 6.70097 10.3333 7.98966 10.3333C9.27834 10.3333 10.323 11.378 10.323 12.6667ZM7.98966 3.3333C7.66763 3.3333 7.40625 3.07203 7.40625 2.75V1.5833C7.40625 1.26138 7.66763 1 7.98966 1C8.31157 1 8.57295 1.26138 8.57295 1.5833V2.75C8.57295 3.07203 8.31157 3.3333 7.98966 3.3333Z" fill="#D67C08"/>
<path d="M13.4608 10.8654C12.5787 10.1198 12.073 9.03074 12.073 7.87634V6.25004C12.073 3.99834 10.2407 2.16675 7.98966 2.16675C5.7385 2.16675 3.90625 3.99834 3.90625 6.25004V7.87637C3.90625 9.03077 3.4005 10.1205 2.51333 10.8706C2.40124 10.9663 2.31126 11.0851 2.24961 11.219C2.18796 11.3528 2.1561 11.4985 2.15625 11.6458C2.15625 12.2088 2.61415 12.6667 3.17716 12.6667H12.8022C13.3651 12.6667 13.823 12.2088 13.823 11.6458C13.823 11.3472 13.6929 11.0642 13.4608 10.8654V10.8654Z" fill="#FFA007"/>
</svg>
