<svg width="16" height="16" viewBox="0 0 16 16" fill="none" xmlns="http://www.w3.org/2000/svg">
<path d="M8.86163 2.3999H7.13855C6.58343 2.3999 6.13342 2.84991 6.13342 3.40503V12.5948C6.13342 13.1499 6.58343 13.5999 7.13855 13.5999H8.86163C9.41674 13.5999 9.86676 13.1499 9.86676 12.5948V3.40503C9.86676 2.84991 9.41674 2.3999 8.86163 2.3999Z" fill="#2196F3"/>
<path d="M13.1692 5.27173H11.4462C10.8911 5.27173 10.441 5.72174 10.441 6.27686V12.5948C10.441 13.1499 10.8911 13.5999 11.4462 13.5999H13.1692C13.7244 13.5999 14.1744 13.1499 14.1744 12.5948V6.27686C14.1744 5.72174 13.7244 5.27173 13.1692 5.27173Z" fill="#1565C0"/>
<path d="M4.55389 4.69727H2.83081C2.27569 4.69727 1.82568 5.14728 1.82568 5.70239V12.5947C1.82568 13.1498 2.27569 13.5998 2.83081 13.5998H4.55389C5.109 13.5998 5.55902 13.1498 5.55902 12.5947V5.70239C5.55902 5.14728 5.109 4.69727 4.55389 4.69727Z" fill="#29B6F6"/>
</svg>
